<?xml version="1.0" standalone="no"?>
<!DOCTYPE svg PUBLIC "-//W3C//DTD SVG 20010904//EN"
 "http://www.w3.org/TR/2001/REC-SVG-20010904/DTD/svg10.dtd">
<svg version="1.0" xmlns="http://www.w3.org/2000/svg"
 width="512.000000pt" height="512.000000pt" viewBox="0 0 512.000000 512.000000"
 preserveAspectRatio="xMidYMid meet">
<metadata>
Created by potrace 1.14, written by Peter Selinger 2001-2017
</metadata>
<g transform="translate(0.000000,512.000000) scale(0.100000,-0.100000)"
fill="#000000" stroke="none">
<path d="M1125 5109 c-492 -63 -908 -406 -1059 -872 -64 -197 -61 -109 -61
-1677 0 -1324 1 -1431 18 -1512 95 -468 421 -840 860 -982 197 -64 109 -61
1677 -61 1324 0 1431 1 1512 18 468 95 840 421 982 860 64 197 61 109 61 1677
0 1567 3 1478 -61 1677 -120 376 -441 698 -815 816 -202 65 -96 61 -1639 63
-786 1 -1436 -2 -1475 -7z m1226 -1689 c49 -140 144 -415 210 -610 67 -195
186 -541 265 -769 79 -228 144 -418 144 -423 0 -5 -105 -7 -232 -6 l-233 3
-75 230 -76 230 -375 3 -375 2 -75 -232 -76 -233 -233 -3 -233 -2 6 28 c3 15
105 316 227 667 122 352 279 805 348 1008 l127 367 284 -2 284 -3 88 -255z
m1793 -247 c14 -4 17 -11 12 -35 -3 -17 -6 -102 -6 -189 l0 -158 -32 7 c-18 4
-80 7 -138 7 -86 0 -113 -4 -151 -21 -99 -46 -161 -129 -179 -241 -6 -32 -10
-255 -10 -495 l0 -438 -215 0 -215 0 0 775 0 775 210 0 209 0 3 -137 3 -138
32 67 c58 123 161 207 280 228 46 8 158 4 197 -7z"/>
<path d="M1880 2929 c-50 -156 -107 -331 -126 -389 -19 -58 -34 -107 -34 -110
0 -3 116 -4 257 -3 201 2 257 6 256 15 -8 38 -244 753 -252 761 -6 6 -44 -99
-101 -274z"/>
</g>
</svg>
